<svg width="91" height="102" viewBox="0 0 91 102" fill="none" xmlns="http://www.w3.org/2000/svg">
<path fill-rule="evenodd" clip-rule="evenodd" d="M16.6303 0.209155C13.9493 0.748155 11.3293 1.70516 9.54729 2.79716C7.50329 4.05016 4.38528 6.75116 4.38528 7.26916C4.38528 7.39416 4.29828 7.53216 4.19128 7.57616C3.54728 7.84116 1.20928 12.1872 0.72528 14.0182C-0.72672 19.5112 0.0302889 25.2752 2.73729 29.3362C3.11529 29.9042 3.42429 30.4182 3.42429 30.4792C3.42429 30.8842 5.84928 33.3282 18.8873 46.0602L25.5133 52.5312L25.5143 67.7881C25.5153 86.2751 25.5413 86.5362 27.8193 91.2252C30.4273 96.5952 35.9093 100.629 42.2003 101.809C44.2623 102.195 50.5533 101.884 50.8643 101.379C50.9353 101.266 51.3173 101.173 51.7143 101.173C52.3793 101.173 53.3173 100.826 53.6053 100.474C53.6713 100.393 54.2613 100.058 54.9163 99.7292C57.6583 98.3552 60.5023 95.8002 62.1283 93.2502C63.0493 91.8052 63.3513 91.2202 64.2673 89.1082C65.2693 86.7962 65.4143 84.5972 65.5193 70.0812C65.5743 62.4222 65.7123 55.8852 65.8273 55.5552C65.9413 55.2252 66.1763 54.4692 66.3503 53.8742C66.5233 53.2802 66.9143 52.3912 67.2183 51.8982C67.5223 51.4062 67.7703 50.8752 67.7703 50.7192C67.7703 50.4562 75.4573 42.6962 80.7503 37.6162C86.7193 31.8862 88.9563 29.0332 89.8383 26.0232C90.0123 25.4292 90.2403 24.7272 90.3463 24.4632C91.2153 22.2872 91.1523 16.4092 90.2323 13.8982C86.2833 3.12516 77.0163 -1.81885 65.4893 0.697154C64.6763 0.875154 59.9903 3.11316 59.5403 3.54016C59.3793 3.69216 58.8693 4.12816 58.4063 4.50816C57.9443 4.88916 54.9373 7.75116 51.7243 10.8692C48.5103 13.9882 45.7013 16.5672 45.4813 16.6002C45.2353 16.6372 42.8163 14.4282 39.2073 10.8722C35.9763 7.68816 32.7353 4.62316 32.0043 4.06116C30.1983 2.67216 26.5123 0.813159 25.5643 0.813159C25.3253 0.813159 25.0273 0.715156 24.9013 0.596156C24.3253 0.048156 18.7333 -0.212845 16.6303 0.209155ZM23.6083 8.02116C26.5303 8.95416 26.7773 9.16416 38.6803 20.8612C45.6713 27.7312 45.2373 27.3182 46.8833 28.6602C47.6093 29.2522 48.3643 29.9032 48.5633 30.1082C49.5283 31.1052 56.2413 35.6272 56.7553 35.6272C56.8713 35.6272 56.9663 35.7352 56.9663 35.8672C56.9663 35.9992 57.0803 36.1072 57.2203 36.1072C57.3603 36.1072 58.3593 36.5332 59.4413 37.0542C61.4873 38.0402 64.8703 39.2282 65.6293 39.2282C67.6563 39.2282 67.6093 39.8912 65.4293 42.0642C62.5073 44.9772 59.3673 49.4962 59.3673 50.7892C59.3673 51.0182 59.2773 51.2602 59.1683 51.3282C59.0583 51.3962 58.8313 52.0772 58.6623 52.8432C58.4933 53.6082 58.2583 54.5482 58.1403 54.9312C58.0233 55.3132 57.9253 61.5262 57.9233 68.7362C57.9193 81.9282 57.8493 83.0712 57.1033 82.0842C56.9043 81.8212 56.7383 81.5292 56.7333 81.4352C56.7213 81.1532 54.3953 76.4031 53.7023 75.2431C53.3473 74.6491 52.8433 73.7842 52.5833 73.3222C52.0663 72.4062 48.0863 66.5542 47.8473 66.3592C47.7653 66.2932 47.4393 65.8612 47.1223 65.3992C46.8053 64.9372 46.4853 64.5052 46.4123 64.4382C46.3383 64.3722 45.4193 63.2382 44.3683 61.9172C43.3173 60.5972 42.2913 59.3352 42.0883 59.1132C41.8863 58.8922 40.9633 57.8472 40.0393 56.7912C38.5283 55.0672 28.5273 45.0442 15.5943 32.2932C8.82828 25.6232 8.32328 24.9052 7.75528 21.1612C6.43728 12.4662 15.0853 5.29816 23.6083 8.02116ZM75.4903 8.21516C83.3933 11.3482 85.8523 20.8252 80.4393 27.2912C74.1613 34.7892 65.5253 33.8862 53.6663 24.4902C50.6713 22.1182 50.6693 22.4492 53.7013 19.4722C55.0753 18.1232 57.7633 15.4872 59.6743 13.6142C65.0233 8.37215 66.7023 7.51116 71.3723 7.61616C73.5653 7.66516 74.4123 7.78816 75.4903 8.21516ZM34.4013 61.7462C34.4033 61.8402 34.9323 62.4842 35.5763 63.1752C39.6013 67.5012 45.7533 76.1362 47.8523 80.4052C48.1773 81.0652 48.5243 81.6412 48.6233 81.6852C48.7223 81.7292 48.8033 81.9121 48.8033 82.0921C48.8033 82.2711 49.0133 82.7762 49.2693 83.2122C51.6443 87.2552 51.9633 92.7111 49.8833 93.7041C49.4873 93.8931 48.9753 94.1392 48.7463 94.2492C47.9363 94.6402 43.2063 94.4812 41.7943 94.0152C38.1883 92.8252 35.2893 89.9552 33.8563 86.1582C33.3353 84.7762 32.8413 62.5912 33.3043 61.3832C33.4333 61.0472 34.3923 61.3642 34.4013 61.7462Z" fill="#F5F5F5"/>
</svg>
